<?xml version="1.0" standalone="no"?>
<!DOCTYPE svg PUBLIC "-//W3C//DTD SVG 20010904//EN"
 "http://www.w3.org/TR/2001/REC-SVG-20010904/DTD/svg10.dtd">
<svg version="1.0" xmlns="http://www.w3.org/2000/svg"
 width="16.000000pt" height="16.000000pt" viewBox="0 0 16.000000 16.000000"
 preserveAspectRatio="xMidYMid meet">

<g transform="translate(0.000000,16.000000) scale(0.100000,-0.100000)"
fill="#000000" stroke="none">
<path d="M60 147 c0 -5 5 -17 10 -28 8 -13 7 -19 0 -19 -12 0 -8 -75 4 -88 7
-6 28 20 26 33 0 3 6 13 15 21 11 11 13 20 6 28 -6 7 -8 23 -5 37 l5 24 -14
-24 -14 -24 -17 24 c-9 13 -16 20 -16 16z m37 -63 c-3 -3 -12 -4 -19 -1 -8 3
-5 6 6 6 11 1 17 -2 13 -5z"/>
</g>
</svg>
